<?xml version="1.0" encoding="utf-8"?>
<!-- Generator: Adobe Illustrator 25.4.1, SVG Export Plug-In . SVG Version: 6.00 Build 0)  -->
<svg version="1.1"  xmlns="http://www.w3.org/2000/svg" xmlns:xlink="http://www.w3.org/1999/xlink" x="0px" y="0px"
	 viewBox="0 0 90 90"  xml:space="preserve">
<g>
	<path d="M65.01,30.29c4.37,0,9.11,0.09,13.84-0.03c4.2-0.1,7.69,1.2,9.78,4.95c2.13,3.83,1.74,7.59-0.88,11.19
		c-0.45,0.62-0.46,1.89-0.18,2.68c1.49,4.12,0.93,7.74-1.97,11.11c-0.62,0.72-0.61,2.09-0.69,3.17c-0.17,2.22,0.54,4.88-0.46,6.57
		c-1.75,2.97-2.15,5.56-1.66,8.99c0.78,5.5-3.47,10.14-9.04,10.14C59.91,89.09,46,90.22,32.38,86.5c-2.48-0.68-5.27-1.72-7.6,0.82
		c-0.34,0.37-1.3,0.23-1.97,0.24c-6.14,0.02-12.28-0.06-18.41,0.04c-2.79,0.05-3.9-1.14-3.89-3.86C0.54,67.83,0.55,51.91,0.5,35.99
		c-0.01-2.79,1.21-3.81,3.95-3.76c6.14,0.11,12.28-0.17,18.41,0.13c2.9,0.14,5.51,1.24,8.64-0.06c6.44-2.68,10.29-7.74,13.4-13.44
		c1.04-1.9,0.95-4.64,0.76-6.94c-0.43-5.1,0.61-8.64,3.42-9.96c3.41-1.6,9.11-0.4,11.59,3.43c2.08,3.21,3.57,7.11,4.17,10.9
		C65.54,20.69,65.01,25.31,65.01,30.29z M26.56,59.61c0,6.14-0.09,12.29,0.09,18.42c0.03,0.92,1.15,2.4,2.02,2.62
		c14.24,3.56,28.77,4,43.34,3.37c1.84-0.08,4.1-1.32,5.28-2.76c1.58-1.91,0.43-4.03-1.31-5.7c-2.02-1.94-1.58-3.47,0.82-4.79
		c4.01-2.2,4.49-4.67,1.62-8.16c-1.7-2.07-1.62-3.6,0.95-4.79c4.67-2.17,5.19-4.79,1.73-8.6c-1.67-1.84-1.69-3.4,0.61-4.65
		c2.36-1.28,3.7-3.11,2.88-5.84c-0.83-2.76-3.07-3.35-5.67-3.33c-5.57,0.04-11.14,0.05-16.72-0.01c-3.71-0.04-4.18-1.06-3.48-4.65
		c0.76-3.87,1.44-7.88,1.27-11.78c-0.14-3.17-1.09-6.56-2.62-9.33c-0.87-1.58-3.64-2.11-5.55-3.12c-0.34,1.77-1.12,3.59-0.92,5.3
		c0.55,4.79-0.6,8.98-3.3,12.89C43.02,31.37,37.38,36.6,29.2,38.34c-2.03,0.43-2.72,1.45-2.68,3.52
		C26.64,47.78,26.56,53.7,26.56,59.61z M21.12,82.2c0-14.99,0-29.77,0-44.68c-5.23,0-10.17,0-15.23,0c0,15.03,0,29.82,0,44.68
		C11.1,82.2,16.04,82.2,21.12,82.2z"/>
</g>
</svg>
